<svg xmlns="http://www.w3.org/2000/svg" width="23.457" height="21.783" viewBox="0 0 23.457 21.783"><g transform="translate(-48 -90.667)"><path d="M64.158,90.667a7.4,7.4,0,0,1,7.052,5.747,8.191,8.191,0,0,1,.247,2,8.434,8.434,0,0,1-1.139,4.2.944.944,0,1,1-1.654-.91,6.582,6.582,0,0,0,.905-3.286,6.315,6.315,0,0,0-.19-1.541,5.514,5.514,0,0,0-5.221-4.321,5.181,5.181,0,0,0-3.749,1.638.944.944,0,0,1-1.359,0A5.259,5.259,0,0,0,55.3,92.554a5.658,5.658,0,0,0-5.411,5.862,7.367,7.367,0,0,0,1.6,4.428,26.64,26.64,0,0,0,4.52,4.909c.577.514,1.157,1.011,1.724,1.478l.54.439.425.338.408.317.062.047a.9.9,0,0,0,1.12-.007l.4-.31.423-.338.494-.4a.944.944,0,0,1,1.2,1.457l-.512.417-.625.5-.23.177a2.793,2.793,0,0,1-3.3.093l-.178-.132-.424-.329-.565-.451q-1.132-.914-2.218-1.882a28.192,28.192,0,0,1-4.848-5.293A9.031,9.031,0,0,1,48,98.416a7.54,7.54,0,0,1,7.3-7.749,7.075,7.075,0,0,1,4.365,1.542l.063.051.068-.055a7.007,7.007,0,0,1,4.165-1.535l.2,0Z" fill="#4a7a6e"/><path d="M630.351,688a.944.944,0,0,1,.078,1.884l-.078,0h-5.392a.944.944,0,0,1-.078-1.884l.078,0Z" transform="translate(-561.456 -582.235)" fill="#4a7a6e"/><path d="M731.611,581.333a.944.944,0,0,1,.94.866l0,.078v5.392a.944.944,0,0,1-1.884.078l0-.078v-5.392a.944.944,0,0,1,.944-.944Z" transform="translate(-665.411 -478.264)" fill="#4a7a6e"/></g></svg>