<svg xmlns="http://www.w3.org/2000/svg" width="16.64" height="16.656" viewBox="0 0 16.64 16.656"><path d="M132.114,143.32v-7.443a.663.663,0,0,1,.312-.555c1.718-1.041,4.771-3.661,4.771-5.882,0-.1-.121-1.44.885-1.44,0,0,2.568.607.972,6.94h4.511A.949.949,0,0,1,144.589,136s.052,1.44-1.457,7.044c0,0-.468,1.614-1.058,1.614,0,0-7.374-.694-9.352-.694A.634.634,0,0,1,132.114,143.32Zm-3.765.746,2.082-.087a.353.353,0,0,0,.295-.347v-7.686a.353.353,0,0,0-.295-.347l-2.082-.069a.342.342,0,0,0-.4.347v7.842A.329.329,0,0,0,128.35,144.066Z" transform="translate(-127.949 -128)" fill="#4a7a6e"/></svg>