<svg xmlns="http://www.w3.org/2000/svg" width="37.914" height="37.914" viewBox="0 0 37.914 37.914"><path d="M32.575,5.754a18.965,18.965,0,1,0,0,26.82,18.984,18.984,0,0,0,0-26.82Zm-13.41,30A16.594,16.594,0,1,1,35.759,19.165,16.614,16.614,0,0,1,19.165,35.759Zm8.969-9.624a1.406,1.406,0,1,1-1.989,1.989l-6.939-6.939-6.94,6.94a1.406,1.406,0,1,1-1.989-1.989L17.217,19.2l-6.939-6.94a1.406,1.406,0,0,1,1.989-1.989l6.939,6.939,6.939-6.939a1.406,1.406,0,0,1,1.989,1.989L21.195,19.2l6.939,6.939Z" transform="translate(-0.207 -0.208)" fill="#4a7a6e"/></svg>