<svg xmlns="http://www.w3.org/2000/svg" width="22.729" height="21.649" viewBox="0 0 22.729 21.649"><path d="M11.365,29.757l2.283,4.626a1.778,1.778,0,0,0,1.334.971l5.1.743-3.693,3.6a1.768,1.768,0,0,0-.51,1.569l.871,5.085-4.566-2.4a1.769,1.769,0,0,0-1.649,0l-4.566,2.4.871-5.085a1.773,1.773,0,0,0-.51-1.569l-3.693-3.6,5.1-.743a1.765,1.765,0,0,0,1.334-.971l2.283-4.624m0-2.757a.35.35,0,0,0-.317.2L7.812,33.756a.357.357,0,0,1-.266.2L.3,35a.355.355,0,0,0-.2.605l5.238,5.1a.354.354,0,0,1,.1.315L4.212,48.235a.354.354,0,0,0,.35.415.341.341,0,0,0,.164-.042L11.2,45.2a.357.357,0,0,1,.328,0L18,48.607a.353.353,0,0,0,.514-.372l-1.237-7.208a.354.354,0,0,1,.1-.315l5.238-5.1a.354.354,0,0,0-.2-.605l-7.237-1.051a.352.352,0,0,1-.266-.2L11.684,27.2A.351.351,0,0,0,11.365,27Z" transform="translate(0 -27)" fill="#707070"/></svg>