<svg xmlns="http://www.w3.org/2000/svg" width="39.567" height="34.443" viewBox="0 0 39.567 34.443"><g transform="translate(0)"><path d="M25.532,34.443h-12.1A3.949,3.949,0,0,1,9.52,30.529V3.914A3.949,3.949,0,0,1,13.434,0h8.54a3.765,3.765,0,0,1,2.135.64l.142.071,4.412,3.772a2.018,2.018,0,0,0,.925.285H45.173a3.949,3.949,0,0,1,3.914,3.914v6.191a1.094,1.094,0,0,1-1.067,1.067,1.16,1.16,0,0,1-1.139-1.067V8.682A1.762,1.762,0,0,0,45.1,6.9H29.517a3.765,3.765,0,0,1-2.135-.64l-.142-.071L22.827,2.42a1.526,1.526,0,0,0-.854-.285h-8.54a1.762,1.762,0,0,0-1.779,1.779V30.458a1.762,1.762,0,0,0,1.779,1.779h12.1A1.094,1.094,0,0,1,26.6,33.3a1.16,1.16,0,0,1-1.067,1.139Z" transform="translate(-9.52)" fill="#4a7a6e"/><path d="M660.239,491.969h-6.4v-6.4a1.1,1.1,0,0,0-1.068-1.067,1.048,1.048,0,0,0-1.067,1.067v6.4h-6.4a1.067,1.067,0,0,0,0,2.135h6.4v6.4a1.067,1.067,0,1,0,2.135,0v-6.4h6.4a1.067,1.067,0,0,0,0-2.135Z" transform="translate(-622.879 -468.2)" fill="#4a7a6e"/></g></svg>