<svg xmlns="http://www.w3.org/2000/svg" width="27.16" height="27.12" viewBox="0 0 27.16 27.12"><path d="M77.914,89.127V73.484a1,1,0,0,1,.291-.7l7.363-7.642H65.724L73.1,72.789a1,1,0,0,1,.285.7V82.9l1.8,1.34a1,1,0,0,1,.17,1.469,1.2,1.2,0,0,1-1.589.157L71.546,84.2a1.011,1.011,0,0,1-.419-.815V73.877l-8.763-9.089a.981.981,0,0,1-.188-1.121,1.14,1.14,0,0,1,1.031-.617h24.9a1.128,1.128,0,0,1,1.031.623.981.981,0,0,1-.194,1.121L80.17,73.882V89.127a1.132,1.132,0,0,1-2.256,0Z" transform="translate(-62.077 -63.05)"/></svg>