<svg xmlns="http://www.w3.org/2000/svg" width="44" height="55" viewBox="0 0 44 55"><g transform="translate(-230 -546)"><text transform="translate(230 597)" fill="#4a7a6e" font-size="11" font-family="PingFang SC Bold, PingFang SC"><tspan x="0" y="0">点击查看</tspan></text><g transform="translate(167.79 482.39)"><path d="M320.06,255.58m1.208,0h14.152a1.068,1.068,0,0,1,1.208,1.208h0A1.068,1.068,0,0,1,335.419,258H321.268a1.068,1.068,0,0,1-1.208-1.208h0A1.068,1.068,0,0,1,321.268,255.58Z" transform="translate(-244.814 -183.689)" fill="#4a7a6e"/><path d="M320.06,420.21m1.208,0h8.645a1.068,1.068,0,0,1,1.208,1.208h0a1.068,1.068,0,0,1-1.208,1.208h-8.645a1.068,1.068,0,0,1-1.208-1.208h0A1.068,1.068,0,0,1,321.268,420.21Z" transform="translate(-244.814 -341.218)" fill="#4a7a6e"/><path d="M99.76,74.67H97.336V66.716A3.106,3.106,0,0,0,94.23,63.61h-21.4a3.106,3.106,0,0,0-3.106,3.106V74.67H67.316a3.106,3.106,0,0,0-3.106,3.106v21.4a3.106,3.106,0,0,0,3.106,3.106H99.76a3.106,3.106,0,0,0,3.106-3.106v-21.4A3.106,3.106,0,0,0,99.76,74.67Zm0,3.106v2.053l-.068.037-2.356,1.361V77.775ZM72.828,66.716h21.4V82.978L87.7,86.787l-4.165,2.4-10.71-6.183Zm-3.106,11.06v3.441l-2.408-1.391v-2.05Zm-2.407,21.4V83.412l2.424,1.4,12.855,7.463a1.855,1.855,0,0,0,.5.2,1.547,1.547,0,0,0,.411.065h.069a1.535,1.535,0,0,0,.5-.1,1.839,1.839,0,0,0,.388-.17l4.8-2.8,10.5-6.061V99.18Z" fill="#4a7a6e"/></g></g></svg>