<svg xmlns="http://www.w3.org/2000/svg" width="20.373" height="20.373" viewBox="0 0 20.373 20.373"><g transform="translate(-69.818 -69.818)"><path d="M86.17,90.191H73.839a4.026,4.026,0,0,1-4.021-4.021V73.839a4.026,4.026,0,0,1,4.021-4.021H80a.8.8,0,1,1,0,1.608H73.839a2.418,2.418,0,0,0-2.413,2.413V86.17a2.418,2.418,0,0,0,2.413,2.413H86.17a2.418,2.418,0,0,0,2.413-2.413V80a.8.8,0,0,1,1.608,0V86.17a4.026,4.026,0,0,1-4.021,4.021Z" transform="translate(0 0)" fill="#707070"/><path d="M466.194,81.927a.809.809,0,0,1-.568-.236.8.8,0,0,1,0-1.137l9.65-9.65a.8.8,0,0,1,1.137,1.137l-9.65,9.65A.81.81,0,0,1,466.194,81.927Z" transform="translate(-386.457 -0.851)" fill="#707070"/><path d="M703.275,71.426h-4.289a.8.8,0,1,1,0-1.608h4.289a.8.8,0,0,1,0,1.608Z" transform="translate(-613.888 0)" fill="#707070"/><path d="M885.168,75.715a.8.8,0,0,1-.8-.8V70.622a.8.8,0,0,1,1.608,0v4.289A.8.8,0,0,1,885.168,75.715Z" transform="translate(-795.781)" fill="#707070"/></g></svg>