<svg xmlns="http://www.w3.org/2000/svg" width="18" height="17.145" viewBox="0 0 18 17.145"><path d="M9,29.184l1.808,3.664a1.408,1.408,0,0,0,1.057.769l4.043.588-2.925,2.851a1.4,1.4,0,0,0-.4,1.243l.69,4.027-3.616-1.9a1.4,1.4,0,0,0-1.306,0l-3.616,1.9.69-4.027a1.4,1.4,0,0,0-.4-1.243L2.093,34.2l4.043-.588a1.4,1.4,0,0,0,1.057-.769L9,29.184M9,27a.277.277,0,0,0-.251.156L6.187,32.351a.283.283,0,0,1-.211.154l-5.735.832a.281.281,0,0,0-.156.479l4.148,4.043a.28.28,0,0,1,.081.249l-.978,5.709a.281.281,0,0,0,.277.328.27.27,0,0,0,.13-.033l5.128-2.695a.283.283,0,0,1,.26,0l5.128,2.695a.279.279,0,0,0,.407-.295l-.98-5.709a.28.28,0,0,1,.081-.249l4.148-4.043a.281.281,0,0,0-.156-.479l-5.731-.832a.279.279,0,0,1-.211-.154L9.253,27.156A.278.278,0,0,0,9,27Z" transform="translate(0 -27)" fill="#707070"/></svg>