<svg xmlns="http://www.w3.org/2000/svg" width="14.799" height="14.097" viewBox="0 0 14.799 14.097"><path d="M11.317,35.829a.231.231,0,0,0-.066.2l.805,4.693a.231.231,0,0,1-.336.242L7.507,38.754a.235.235,0,0,0-.108-.026.239.239,0,0,0-.108.026L3.075,40.97a.231.231,0,0,1-.336-.242l.807-4.693a.231.231,0,0,0-.066-.2L.07,32.505A.231.231,0,0,1,.2,32.111l4.712-.686a.229.229,0,0,0,.173-.127l2.107-4.27a.23.23,0,0,1,.413,0L9.709,31.3a.232.232,0,0,0,.173.127l4.718.686a.231.231,0,0,1,.128.394Z" transform="translate(0 -26.9)" fill="#ea9518"/></svg>