<svg xmlns="http://www.w3.org/2000/svg" width="20.141" height="20.141" viewBox="0 0 20.141 20.141"><path d="M104.215,83.23a.755.755,0,0,1,.675,1.093q-.684,1.365-1.343,2.743a10.058,10.058,0,1,1-3.5-3.015A10.444,10.444,0,0,1,104.215,83.23Zm-3.876,2.346a.755.755,0,0,1-.7-.025,8.567,8.567,0,1,0,2.441,2.082.755.755,0,0,1-.094-.8q.48-1.014.975-2.02a8.427,8.427,0,0,0-2.621.759Zm-9.215,3.948a1.007,1.007,0,0,1,1.007,1.007v1.511a1.007,1.007,0,1,1-2.014,0V90.531A1.007,1.007,0,0,1,91.123,89.524Zm4.028,0a1.007,1.007,0,0,1,1.007,1.007v1.511a1.007,1.007,0,1,1-2.014,0V90.531A1.007,1.007,0,0,1,95.152,89.524Z" transform="translate(-85.333 -82.922)" fill="#707070"/></svg>