<svg xmlns="http://www.w3.org/2000/svg" width="49.219" height="51.228" viewBox="0 0 49.219 51.228"><path d="M67.276,42.667c-13.565,0-24.609,11.495-24.609,25.614S53.711,93.894,67.276,93.894,91.886,82.4,91.886,68.281,80.842,42.667,67.276,42.667Zm0,29.89a13,13,0,0,1,12.73,13.389,20.6,20.6,0,0,1-12.73,4.416A20.349,20.349,0,0,1,54.5,85.853a13.042,13.042,0,0,1,12.775-13.3ZM67.035,46.2c11.684,0,21.457,10.014,21.457,22.082A22.123,22.123,0,0,1,83.6,82.273l-.322.392-.195-.054a16.753,16.753,0,0,0-9.462-12.184l-.358-.156-.035-.193a9.343,9.343,0,0,0,2.859-6.818,8.94,8.94,0,1,0-17.865,0,9.338,9.338,0,0,0,2.613,6.57l.246.248-.035.193a16.709,16.709,0,0,0-9.74,11.943l-.082.4-.195.052a22.769,22.769,0,0,1-5.213-14.383C45.819,56.168,55.4,46.2,67.035,46.2Zm.242,11.3a5.769,5.769,0,1,1-5.538,5.764A5.631,5.631,0,0,1,67.276,57.5Z" transform="translate(-42.667 -42.667)"/></svg>