<svg xmlns="http://www.w3.org/2000/svg" width="20.141" height="20.141" viewBox="0 0 20.141 20.141"><path d="M95.4,82.922a10.03,10.03,0,0,1,4.639,1.13,10.443,10.443,0,0,1,4.173-.821.755.755,0,0,1,.675,1.093q-.684,1.366-1.343,2.743A10.071,10.071,0,1,1,95.4,82.922Zm-4.28,6.6a1.007,1.007,0,0,0-1.007,1.007v1.511a1.007,1.007,0,0,0,2.014,0V90.532A1.007,1.007,0,0,0,91.123,89.525Zm4.028,0a1.007,1.007,0,0,0-1.007,1.007v1.511a1.007,1.007,0,1,0,2.014,0V90.532A1.007,1.007,0,0,0,95.152,89.525Z" transform="translate(-85.333 -82.922)" fill="#4a7a6e"/></svg>