<svg xmlns="http://www.w3.org/2000/svg" width="18.873" height="22.185" viewBox="0 0 18.873 22.185"><path d="M132.673,148.406v-9.914a.926.926,0,0,1,.354-.74c1.948-1.387,5.412-4.876,5.412-7.834,0-.139-.138-1.918,1-1.918,0,0,2.912.809,1.1,9.244h5.116s1.161-.116,1.161,1.41c0,0,.059,1.918-1.653,9.383,0,0-.531,2.149-1.2,2.149,0,0-8.363-.924-10.607-.924A.8.8,0,0,1,132.673,148.406Zm-4.27.994,2.361-.116a.455.455,0,0,0,.335-.462V138.584a.455.455,0,0,0-.335-.462l-2.361-.092c-.236-.046-.453.162-.453.462v10.446A.4.4,0,0,0,128.4,149.4Z" transform="translate(-127.949 -128)" fill="#4a7a6e"/></svg>