<svg xmlns="http://www.w3.org/2000/svg" width="23.951" height="20.365" viewBox="0 0 23.951 20.365"><path d="M23.951,15.975a1.994,1.994,0,0,1-1.988,1.991H15.629a11.365,11.365,0,0,0-3.824.8L8.489,20.21a1.214,1.214,0,0,1-1.836-1.2v-.051a1,1,0,0,0-1-1H2a1.993,1.993,0,0,1-2-1.991V1.991A2,2,0,0,1,2,0h19.95a2,2,0,0,1,2,1.991Zm-16.411,0a.993.993,0,0,1,.993,1,.6.6,0,0,0,.913.6l1.823-.8a11.4,11.4,0,0,1,3.819-.8H20.96a1,1,0,0,0,1-1V3a1,1,0,0,0-.99-1H2.986A1,1,0,0,0,2,3V14.965a1,1,0,0,0,.993,1ZM5.989,10.98a1,1,0,0,1,1-1h9.976a1,1,0,1,1,0,2H6.989A1,1,0,0,1,5.989,10.98Zm0-3.993a1,1,0,0,1,1-1h9.976a1,1,0,1,1,0,2H6.989A1,1,0,0,1,5.989,6.987Z" fill="#707070"/></svg>