<svg xmlns="http://www.w3.org/2000/svg" width="37.655" height="39.192" viewBox="0 0 37.655 39.192"><path d="M61.494,42.667c-10.378,0-18.827,8.794-18.827,19.6s8.449,19.6,18.827,19.6,18.827-8.794,18.827-19.6S71.872,42.667,61.494,42.667Zm0,22.867a9.945,9.945,0,0,1,9.739,10.243,15.763,15.763,0,0,1-9.739,3.379,15.568,15.568,0,0,1-9.773-3.45,9.978,9.978,0,0,1,9.773-10.172Zm-.185-20.165c8.939,0,16.416,7.661,16.416,16.893a16.925,16.925,0,0,1-3.742,10.7l-.246.3-.149-.041a12.817,12.817,0,0,0-7.239-9.321l-.274-.119-.027-.148a7.148,7.148,0,0,0,2.187-5.216,6.839,6.839,0,1,0-13.668,0,7.144,7.144,0,0,0,2,5.026l.188.19-.027.148a12.783,12.783,0,0,0-7.451,9.137l-.062.3-.149.04a17.42,17.42,0,0,1-3.988-11C45.078,53,52.406,45.369,61.309,45.369Zm.185,8.643a4.413,4.413,0,1,1-4.237,4.41,4.308,4.308,0,0,1,4.237-4.41Z" transform="translate(-42.667 -42.667)"/></svg>